inDegrees=no
num_controls=7
num_derivatives=13
num_iterations=134
num_multipliers=7
num_parameters=0
num_slacks=7
num_states=26
objective=0.444873
objective_accelerations=0.058004
objective_balance=0.003670
objective_effort=0.023399
objective_height=0.354298
objective_ligament=0.005502
solver_duration=1939.753068
status=Solve_Succeeded
success=true
DataType=double
version=3
OpenSimVersion=4.5
endheader
time	/jointset/ground_pelvis/pelvis_tilt/value	/jointset/ground_pelvis/pelvis_tx/value	/jointset/ground_pelvis/pelvis_ty/value	/jointset/hip_l/hip_flexion_l/value	/jointset/hip_l/hip_adduction_l/value	/jointset/hip_l/hip_rotation_l/value	/jointset/back/lumbar_extension/value	/jointset/patellofemoral_l/patellar_flexion_l/value	/jointset/knee_l/knee_flexion_l/value	/jointset/knee_l/knee_adduction_l/value	/jointset/knee_l/knee_rotation_l/value	/jointset/ankle_l/ankle_angle_l/value	/jointset/subtalar_l/subtalar_angle_l/value	/jointset/ground_pelvis/pelvis_tilt/speed	/jointset/ground_pelvis/pelvis_tx/speed	/jointset/ground_pelvis/pelvis_ty/speed	/jointset/hip_l/hip_flexion_l/speed	/jointset/hip_l/hip_adduction_l/speed	/jointset/hip_l/hip_rotation_l/speed	/jointset/back/lumbar_extension/speed	/jointset/patellofemoral_l/patellar_flexion_l/speed	/jointset/knee_l/knee_flexion_l/speed	/jointset/knee_l/knee_adduction_l/speed	/jointset/knee_l/knee_rotation_l/speed	/jointset/ankle_l/ankle_angle_l/speed	/jointset/subtalar_l/subtalar_angle_l/speed	/forceset/tau_hip_flexion_l	/forceset/tau_hip_adduction_l	/forceset/tau_hip_rotation_l	/forceset/tau_knee_flexion_l	/forceset/tau_ankle_angle_l	/forceset/tau_subtalar_angle_l	/forceset/tau_lumbar_extension	lambda_cid13_p0	lambda_cid13_p1	lambda_cid13_p2	lambda_cid13_p3	lambda_cid13_p4	lambda_cid13_p5	lambda_cid14_p0	/jointset/ground_pelvis/pelvis_tilt/accel	/jointset/ground_pelvis/pelvis_tx/accel	/jointset/ground_pelvis/pelvis_ty/accel	/jointset/hip_l/hip_flexion_l/accel	/jointset/hip_l/hip_adduction_l/accel	/jointset/hip_l/hip_rotation_l/accel	/jointset/back/lumbar_extension/accel	/jointset/patellofemoral_l/patellar_flexion_l/accel	/jointset/knee_l/knee_flexion_l/accel	/jointset/knee_l/knee_adduction_l/accel	/jointset/knee_l/knee_rotation_l/accel	/jointset/ankle_l/ankle_angle_l/accel	/jointset/subtalar_l/subtalar_angle_l/accel	gamma_cid13_p0	gamma_cid13_p1	gamma_cid13_p2	gamma_cid13_p3	gamma_cid13_p4	gamma_cid13_p5	gamma_cid14_p0
1	-0.5620293475551223	-0.08638170119166493	0.5683028944809527	1.864845204726477	-0.4669280690821694	0.01643833549169624	-0.2617805242305015	1.391190838428121	1.391190838428169	-0.08298015169704151	-0.1745252373707863	0.210763886228986	-0.01496657133653323	-0.01473202985828307	0.01154670709870308	0.003726460934031437	-0.007241345518652977	-0.002639170091024213	0.003265772640830836	-7.336290044993897e-05	0.0006356804664481022	0.0006356804664481025	-0.005848071568131436	-0.0001120968452487053	0.02238158443775004	0.009567830753277292	-0.3421102079903495	0.01083434807927155	0.0003040964174817566	-0.2998485062323321	0.03934518483806859	0.03277352167829554	0.2902675181463987	-27.39328892170822	-10.18973229967924	2.148207273537734	7.887154023256979	-644.3599072336827	-47.98738159190744	-1.284973350219487	1.578133229555457	0.242733921483366	1.996439774255667	-6.939400388054331	-0.100360453835483	-2.355858847469253	-0.02178217869748025	-5.313254586724433	-5.313254586724435	-0.6122993438181975	-0.04228122277376536	-0.6346957743284757	-0.4586864092985233	5.344362315252389e-09	1.993916541949813e-08	-1.371349058338522e-08	2.730657113272105e-09	-1.893045202048111e-09	2.585039011702567e-08	2.633264420101276e-09
1.01	-0.5620987627975383	-0.08625415196129928	0.5684398264980477	1.864427205495123	-0.4669583120761155	0.01635208810823669	-0.2617813119086365	1.39093165740543	1.39093165740545	-0.0830663229556771	-0.1745269400014789	0.2109561640868255	-0.01489221671073651	0.0008457496197975888	0.01396589870017107	0.02365530329178838	-0.07634379236671204	-0.003393728950971876	-0.02050398752913916	-8.446501430993815e-05	-0.0524683360554768	-0.05246833605547693	-0.01137416329668587	-0.0002052624194635835	0.01607109689091035	0.005320913977830078	-0.3419100693629932	0.01091585144380469	0.0002891761872217601	-0.2997800811237408	0.0393217198780149	0.03278531975187902	0.2901203082805774	-27.3859254135491	-10.20136446457868	2.156023042451357	7.777777441605885	-644.1861073856107	-48.00748118497854	-1.290142307535742	1.547114457607237	0.2419265951557818	1.990408341150021	-6.893461890563992	-0.06064968529258595	-2.385850159725165	0.009181929104060883	-5.308441176705955	-5.308441176705955	-0.5209640436554047	0.0106486673973608	-0.6296577239360031	-0.4050269657685668	-1.516571674186e-09	1.442607029953739e-08	2.741283547832869e-08	4.268544005953245e-09	-1.113865700393345e-08	7.462951039999482e-08	-8.219628555685217e-09
1.02	-0.5620124974150387	-0.0861023278517835	0.5687759073136431	1.863318622783812	-0.4669956298753046	0.01602848001148457	-0.2617822193765431	1.390141543019164	1.390141543019156	-0.08320739512285455	-0.174528877709485	0.2110852505733816	-0.01485979778351442	0.01640409512479295	0.01640168292872976	0.04355622063411794	-0.1453580415100634	-0.004054131139646657	-0.04420637001768098	-9.732085479713208e-05	-0.1055509922485789	-0.1055509922485789	-0.01682825327649386	-0.0001591123079700675	0.009743310181099148	0.001180691038353001	-0.3417099307356367	0.01099735480833782	0.0002742559569617354	-0.2997116560151495	0.0392982549179612	0.03279711782546249	0.2899730984147562	-27.3842302731838	-10.21186356804611	2.163497662376617	7.690331895413919	-644.0915761751161	-48.00510016065035	-1.305348934458992	1.574246434938397	0.2460524469015069	1.990854771170192	-6.921760847112789	-0.08152911958090645	-2.342383311183619	-0.02213292402291925	-5.308982520959827	-5.308982520959827	-0.5978989940689102	-0.01441808563208652	-0.638155606922778	-0.4373476421044955	-1.197718470367935e-08	4.73147647488493e-10	6.825344762241413e-08	3.894727219321191e-09	-2.265209665889342e-08	1.294330087342999e-07	-2.228615536020686e-08
1.03	-0.561770717033765	-0.08592603041159241	0.5693107801350229	1.861520468731974	-0.4670392226002767	0.01546807219464955	-0.2617832299416884	1.388820770295989	1.388820770295984	-0.08340276701156646	-0.1745300363591991	0.21115081797574	-0.01486851135501344	0.03195061118210479	0.01886370677920698	0.06340594818170869	-0.2142441645219323	-0.004661709067775961	-0.06787452916017536	-0.0001006177519152468	-0.1585941701621348	-0.1585941701621346	-0.02224505418741878	-8.527939830875341e-05	0.003352016055585745	-0.002930440428291739	-0.3412405806217542	0.01112209718342361	0.0002248536294878211	-0.2994844328825544	0.03928466645504262	0.03288744092087819	0.2896481029132965	-27.36007118286832	-10.26806555091349	2.187015153161794	7.556505326269717	-643.7115336125086	-48.0753677163386	-1.330795654265705	1.544644779887122	0.2471633024752843	1.980165519877238	-6.867751955170224	-0.04997482741962385	-2.378955017171664	0.01119809079518816	-5.300570730362971	-5.300570730362926	-0.5134243049272487	0.0164131558059364	-0.6423399223338219	-0.3990617525685774	-2.24745291519488e-08	-1.356589569366339e-08	1.090911443183605e-07	3.501403252287971e-09	-3.418867741439498e-08	1.842979803140267e-07	-3.63854743466544e-08
